<svg width="24" height="24" viewBox="0 0 24 24" fill="none" xmlns="http://www.w3.org/2000/svg">
<path d="M10.6667 2.66669C9.08444 2.66669 7.53772 3.13588 6.22213 4.01493C4.90654 4.89398 3.88116 6.14341 3.27565 7.60522C2.67015 9.06703 2.51173 10.6756 2.82041 12.2274C3.12909 13.7793 3.89102 15.2047 5.00984 16.3235C6.12866 17.4424 7.55412 18.2043 9.10597 18.513C10.6578 18.8217 12.2663 18.6632 13.7282 18.0577C15.19 17.4522 16.4394 16.4268 17.3184 15.1113C18.1975 13.7957 18.6667 12.2489 18.6667 10.6667C18.6667 8.54496 17.8238 6.51012 16.3235 5.00983C14.8233 3.50954 12.7884 2.66669 10.6667 2.66669ZM10.6667 17.2734C9.34561 17.2733 8.05432 16.8807 6.95673 16.1455C5.85914 15.4103 5.00473 14.3655 4.50196 13.1439C3.99919 11.9222 3.87072 10.5787 4.13285 9.28386C4.39499 7.98904 5.03591 6.8013 5.97427 5.87138C6.91263 4.94146 8.10612 4.31131 9.40326 4.06089C10.7004 3.81047 12.0427 3.95108 13.2598 4.46488C14.4768 4.97867 15.5138 5.84249 16.2391 6.94668C16.9644 8.05087 17.3452 9.34566 17.3334 10.6667C17.3175 12.4244 16.6082 14.1047 15.3596 15.342C14.1111 16.5793 12.4245 17.2734 10.6667 17.2734Z" fill="black"/>
<path d="M21.14 19.7933L17.6933 16.3467C17.4093 16.6981 17.0996 17.0279 16.7667 17.3333L20.2 20.7667C20.3275 20.8759 20.4916 20.933 20.6594 20.9265C20.8271 20.92 20.9863 20.8505 21.105 20.7317C21.2238 20.613 21.2933 20.4538 21.2998 20.286C21.3063 20.1183 21.2492 19.9542 21.14 19.8267V19.7933Z" fill="black"/>
</svg>
