<svg width="24" height="24" viewBox="0 0 24 24" fill="none" xmlns="http://www.w3.org/2000/svg">
<path d="M16.6667 7.99997V6.0333C16.6667 5.42047 16.546 4.81363 16.3115 4.24745C16.0769 3.68126 15.7332 3.16681 15.2999 2.73347C14.8665 2.30013 14.3521 1.95639 13.7859 1.72187C13.2197 1.48734 12.6129 1.36664 12 1.36664C11.3872 1.36664 10.7804 1.48734 10.2142 1.72187C9.64798 1.95639 9.13353 2.30013 8.70019 2.73347C8.26685 3.16681 7.9231 3.68126 7.68858 4.24745C7.45406 4.81363 7.33335 5.42047 7.33335 6.0333V10.7C7.33335 10.8768 7.40359 11.0464 7.52862 11.1714C7.65364 11.2964 7.82321 11.3666 8.00002 11.3666C8.17683 11.3666 8.3464 11.2964 8.47143 11.1714C8.59645 11.0464 8.66669 10.8768 8.66669 10.7V9.3333H14V7.99997H8.66669V6.0333C8.66669 5.14925 9.01788 4.3014 9.643 3.67628C10.2681 3.05116 11.116 2.69997 12 2.69997C12.8841 2.69997 13.7319 3.05116 14.357 3.67628C14.9822 4.3014 15.3334 5.14925 15.3334 6.0333V10.6666C15.3334 10.8434 15.4036 11.013 15.5286 11.138C15.6536 11.2631 15.8232 11.3333 16 11.3333C16.1768 11.3333 16.3464 11.2631 16.4714 11.138C16.5964 11.013 16.6667 10.8434 16.6667 10.6666V9.3333H20V21.3333H4.00002V9.3333H6.00002V7.99997H2.66669V21.3933C2.66669 21.731 2.80084 22.0549 3.03964 22.2937C3.27843 22.5325 3.60231 22.6666 3.94002 22.6666H20.06C20.3977 22.6666 20.7216 22.5325 20.9604 22.2937C21.1992 22.0549 21.3334 21.731 21.3334 21.3933V7.99997H16.6667Z" fill="black"/>
</svg>
