<svg width="25" height="24" viewBox="0 0 25 24" fill="none" xmlns="http://www.w3.org/2000/svg">
<path d="M12.5 11.3333C13.4615 11.3333 14.4013 11.0596 15.2007 10.5469C16.0001 10.0341 16.6232 9.30525 16.9911 8.45253C17.359 7.5998 17.4553 6.66149 17.2677 5.75625C17.0802 4.851 16.6172 4.01948 15.9374 3.36684C15.2575 2.71419 14.3913 2.26974 13.4484 2.08967C12.5054 1.90961 11.528 2.00202 10.6398 2.35523C9.75151 2.70844 8.99231 3.30658 8.45816 4.07401C7.92401 4.84144 7.63892 5.74369 7.63892 6.66667C7.63892 7.90435 8.15107 9.09133 9.0627 9.9665C9.97434 10.8417 11.2108 11.3333 12.5 11.3333ZM12.5 3.33334C13.1868 3.33334 13.8581 3.52883 14.4291 3.8951C15.0001 4.26137 15.4451 4.78197 15.7079 5.39106C15.9707 6.00014 16.0395 6.67037 15.9055 7.31697C15.7716 7.96357 15.4409 8.55752 14.9553 9.02369C14.4697 9.48987 13.851 9.80734 13.1774 9.93595C12.5039 10.0646 11.8057 9.99856 11.1713 9.74627C10.5368 9.49398 9.99451 9.06673 9.61298 8.51857C9.23145 7.97041 9.0278 7.32594 9.0278 6.66667C9.0278 5.78261 9.39363 4.93477 10.0448 4.30965C10.696 3.68452 11.5791 3.33334 12.5 3.33334Z" fill="black"/>
<path d="M21.1597 16.2467C20.0461 15.1167 18.704 14.2166 17.2157 13.6015C15.7273 12.9863 14.1239 12.6691 12.5035 12.6691C10.8831 12.6691 9.27965 12.9863 7.7913 13.6015C6.30294 14.2166 4.96091 15.1167 3.84723 16.2467C3.60578 16.4942 3.47168 16.8208 3.47223 17.16V20.6667C3.47223 21.0203 3.61856 21.3594 3.87903 21.6095C4.13949 21.8595 4.49276 22 4.86112 22H20.1389C20.5073 22 20.8605 21.8595 21.121 21.6095C21.3815 21.3594 21.5278 21.0203 21.5278 20.6667V17.16C21.5302 16.8217 21.3987 16.4953 21.1597 16.2467ZM20.1389 20.6667H4.86112V17.1533C5.84531 16.1584 7.03007 15.3662 8.34331 14.8248C9.65655 14.2835 11.0708 14.0043 12.5 14.0043C13.9292 14.0043 15.3435 14.2835 16.6567 14.8248C17.9699 15.3662 19.1547 16.1584 20.1389 17.1533V20.6667Z" fill="black"/>
</svg>
