<svg width="88" height="39" viewBox="0 0 88 39" fill="none" xmlns="http://www.w3.org/2000/svg">
<path d="M5.8125 12.9297V38.125H0.1875V8.86719H5.40234L5.8125 12.9297ZM19.1914 19.1992V19.6094C19.1914 21.1458 19.0091 22.5716 18.6445 23.8867C18.293 25.2018 17.7721 26.3477 17.082 27.3242C16.3919 28.2878 15.5326 29.043 14.5039 29.5898C13.4883 30.1237 12.3164 30.3906 10.9883 30.3906C9.69922 30.3906 8.57943 30.1302 7.62891 29.6094C6.67839 29.0885 5.8776 28.3594 5.22656 27.4219C4.58854 26.4714 4.07422 25.3711 3.68359 24.1211C3.29297 22.8711 2.99349 21.5299 2.78516 20.0977V19.0234C2.99349 17.487 3.29297 16.0807 3.68359 14.8047C4.07422 13.5156 4.58854 12.4023 5.22656 11.4648C5.8776 10.5143 6.67188 9.77865 7.60938 9.25781C8.5599 8.73698 9.67318 8.47656 10.9492 8.47656C12.2904 8.47656 13.4688 8.73047 14.4844 9.23828C15.513 9.74609 16.3724 10.4753 17.0625 11.4258C17.7656 12.3763 18.293 13.5091 18.6445 14.8242C19.0091 16.1393 19.1914 17.5977 19.1914 19.1992ZM13.5469 19.6094V19.1992C13.5469 18.3008 13.4688 17.474 13.3125 16.7188C13.1693 15.9505 12.9349 15.2799 12.6094 14.707C12.2969 14.1341 11.8802 13.6914 11.3594 13.3789C10.8516 13.0534 10.2331 12.8906 9.50391 12.8906C8.73568 12.8906 8.07812 13.0143 7.53125 13.2617C6.9974 13.5091 6.5612 13.8672 6.22266 14.3359C5.88411 14.8047 5.63021 15.3646 5.46094 16.0156C5.29167 16.6667 5.1875 17.4023 5.14844 18.2227V20.9375C5.21354 21.901 5.39583 22.7669 5.69531 23.5352C5.99479 24.2904 6.45703 24.8893 7.08203 25.332C7.70703 25.7747 8.52734 25.9961 9.54297 25.9961C10.2852 25.9961 10.9102 25.8333 11.418 25.5078C11.9258 25.1693 12.3359 24.707 12.6484 24.1211C12.974 23.5352 13.2018 22.8581 13.332 22.0898C13.4753 21.3216 13.5469 20.4948 13.5469 19.6094ZM28.625 0V30H22.9805V0H28.625ZM44.6797 25.2344V15.8203C44.6797 15.1432 44.569 14.5638 44.3477 14.082C44.1263 13.5872 43.7812 13.2031 43.3125 12.9297C42.8568 12.6562 42.2643 12.5195 41.5352 12.5195C40.9102 12.5195 40.3698 12.6302 39.9141 12.8516C39.4583 13.0599 39.1068 13.3659 38.8594 13.7695C38.612 14.1602 38.4883 14.6224 38.4883 15.1562H32.8633C32.8633 14.2578 33.0716 13.4049 33.4883 12.5977C33.9049 11.7904 34.5104 11.0807 35.3047 10.4688C36.099 9.84375 37.043 9.35547 38.1367 9.00391C39.2435 8.65234 40.4805 8.47656 41.8477 8.47656C43.4883 8.47656 44.9466 8.75 46.2227 9.29688C47.4987 9.84375 48.5013 10.6641 49.2305 11.7578C49.9727 12.8516 50.3438 14.2188 50.3438 15.8594V24.9023C50.3438 26.0612 50.4154 27.0117 50.5586 27.7539C50.7018 28.4831 50.9102 29.1211 51.1836 29.668V30H45.5C45.2266 29.4271 45.0182 28.7109 44.875 27.8516C44.7448 26.9792 44.6797 26.1068 44.6797 25.2344ZM45.4219 17.1289L45.4609 20.3125H42.3164C41.5742 20.3125 40.9297 20.3971 40.3828 20.5664C39.8359 20.7357 39.3867 20.9766 39.0352 21.2891C38.6836 21.5885 38.4232 21.9401 38.2539 22.3438C38.0977 22.7474 38.0195 23.1901 38.0195 23.6719C38.0195 24.1536 38.1302 24.5898 38.3516 24.9805C38.5729 25.3581 38.8919 25.6576 39.3086 25.8789C39.7253 26.0872 40.2135 26.1914 40.7734 26.1914C41.6198 26.1914 42.3555 26.0221 42.9805 25.6836C43.6055 25.3451 44.0872 24.9284 44.4258 24.4336C44.7773 23.9388 44.9596 23.4701 44.9727 23.0273L46.457 25.4102C46.2487 25.944 45.9622 26.4974 45.5977 27.0703C45.2461 27.6432 44.7969 28.1836 44.25 28.6914C43.7031 29.1862 43.0456 29.5964 42.2773 29.9219C41.5091 30.2344 40.5977 30.3906 39.543 30.3906C38.2018 30.3906 36.9844 30.1237 35.8906 29.5898C34.8099 29.043 33.9505 28.2943 33.3125 27.3438C32.6875 26.3802 32.375 25.2865 32.375 24.0625C32.375 22.9557 32.5833 21.9727 33 21.1133C33.4167 20.2539 34.0286 19.5312 34.8359 18.9453C35.6562 18.3464 36.6784 17.8971 37.9023 17.5977C39.1263 17.2852 40.5456 17.1289 42.1602 17.1289H45.4219ZM60.1875 13.3789V30H54.5625V8.86719H59.8359L60.1875 13.3789ZM59.3672 18.6914H57.8438C57.8438 17.1289 58.0456 15.7227 58.4492 14.4727C58.8529 13.2096 59.4193 12.1354 60.1484 11.25C60.8776 10.3516 61.7435 9.66797 62.7461 9.19922C63.7617 8.71745 64.8945 8.47656 66.1445 8.47656C67.1341 8.47656 68.0391 8.61979 68.8594 8.90625C69.6797 9.19271 70.3828 9.64844 70.9688 10.2734C71.5677 10.8984 72.0234 11.7253 72.3359 12.7539C72.6615 13.7826 72.8242 15.0391 72.8242 16.5234V30H67.1602V16.5039C67.1602 15.5664 67.0299 14.8372 66.7695 14.3164C66.5091 13.7956 66.125 13.431 65.6172 13.2227C65.1224 13.0013 64.5104 12.8906 63.7812 12.8906C63.026 12.8906 62.3685 13.0404 61.8086 13.3398C61.2617 13.6393 60.806 14.056 60.4414 14.5898C60.0898 15.1107 59.8229 15.7227 59.6406 16.4258C59.4583 17.1289 59.3672 17.8841 59.3672 18.6914ZM87.4531 8.86719V12.8516H75.1484V8.86719H87.4531ZM78.1953 3.65234H83.8203V23.6328C83.8203 24.2448 83.8984 24.7135 84.0547 25.0391C84.224 25.3646 84.4714 25.5924 84.7969 25.7227C85.1224 25.8398 85.5326 25.8984 86.0273 25.8984C86.3789 25.8984 86.6914 25.8854 86.9648 25.8594C87.2513 25.8203 87.4922 25.7812 87.6875 25.7422L87.707 29.8828C87.2253 30.0391 86.7044 30.1628 86.1445 30.2539C85.5846 30.3451 84.9661 30.3906 84.2891 30.3906C83.0521 30.3906 81.9714 30.1888 81.0469 29.7852C80.1354 29.3685 79.4323 28.7044 78.9375 27.793C78.4427 26.8815 78.1953 25.6836 78.1953 24.1992V3.65234Z" fill="#155B0A"/>
</svg>
